<?xml version="1.0" standalone="no"?><!DOCTYPE svg PUBLIC "-//W3C//DTD SVG 1.1//EN" "http://www.w3.org/Graphics/SVG/1.1/DTD/svg11.dtd"><svg t="1767273546415" class="icon" viewBox="0 0 1024 1024" version="1.1" xmlns="http://www.w3.org/2000/svg" p-id="15847" xmlns:xlink="http://www.w3.org/1999/xlink" width="200" height="200"><path d="M933.34 233.884L541.925 8.128a60.218 60.218 0 0 0-60.218 0L90.29 233.884a60.218 60.218 0 0 0-30.109 52.209v451.633a60.218 60.218 0 0 0 30.11 52.209l391.415 225.756a60.218 60.218 0 0 0 60.218 0L933.34 789.935a60.218 60.218 0 0 0 30.109-52.209V286.093a60.218 60.218 0 0 0-30.109-52.209zM511.816 129.948l270.197 155.904-270.438 156.566L239.57 287.116zM180.618 392.257l270.619 154.579v312.169L180.618 702.8z m391.415 466.687v-312.41l270.619-156.566V702.8z" fill="#1296db" p-id="15848"></path></svg>