<svg t="1767410578883" class="icon" viewBox="0 0 1024 1024" version="1.1" xmlns="http://www.w3.org/2000/svg" p-id="2289" width="200" height="200"><path d="M630.485333 85.333333c-36.010667 79.36 13.610667 119.637333 112.810667 199.082667 99.2 79.445333 177.706667 172.629333 191.018667 247.765333l1.536 9.941334c10.837333 80.256-3.285333 251.733333-157.354667 334.293333-77.653333 41.6-186.026667 66.218667-285.098667 61.738667-106.154667-4.821333-178.816-25.728-244.096-61.738667-88.32-48.725333-149.248-129.408-162.986666-269.098667C72.533333 467.626667 211.84 348.373333 270.250667 304.938667c58.453333-43.434667 124.373333-114.176 182.613333-158.549334C511.061333 102.016 569.685333 85.333333 630.442667 85.333333z m-66.261333 64l-6.4 1.877334a234.922667 234.922667 0 0 0-72.533333 39.168l-11.093334 8.832c-11.178667 9.088-22.869333 19.370667-39.381333 34.56l-64.725333 60.16a957.866667 957.866667 0 0 1-48.256 41.941333l-14.165334 11.008c-96.981333 73.173333-165.930667 164.394667-157.653333 249.472 10.837333 111.786667 53.973333 180.138667 131.413333 223.488 59.306667 33.28 123.306667 50.176 214.4 54.357333 85.546667 3.925333 181.802667-17.493333 250.154667-54.613333 104.533333-56.874667 142.293333-180.010667 124.416-282.496-9.088-52.138667-68.394667-129.706667-156.586667-203.392l-34.176-28.032c-51.882667-42.794667-71.808-62.293333-90.197333-89.770667a149.333333 149.333333 0 0 1-24.405333-60.288l-0.853334-6.272z m130.56 320c69.888 0 126.549333 53.802667 126.549333 120.234667v2.517333c0 62.976-52.053333 114.346667-117.504 117.546667l-6.4 0.128-115.114666 68.906667v-68.906667H329.216c-69.888 0-126.549333-53.802667-126.549333-120.192C202.666667 523.093333 259.328 469.333333 329.216 469.333333h365.568zM341.333333 533.333333a64 64 0 1 0 0 128 64 64 0 0 0 0-128z m341.333334 0a64 64 0 1 0 0 128 64 64 0 0 0 0-128z" p-id="2290" fill="#1296db"></path></svg>